<svg id="visual" viewBox="0 0 960 540" width="960" height="540" xmlns="http://www.w3.org/2000/svg" xmlns:xlink="http://www.w3.org/1999/xlink" version="1.1"><rect x="0" y="0" width="960" height="540" fill="#11191f"></rect><path d="M0 345L22.8 343.2C45.7 341.3 91.3 337.7 137 337C182.7 336.3 228.3 338.7 274 338.3C319.7 338 365.3 335 411.2 340C457 345 503 358 548.8 357.7C594.7 357.3 640.3 343.7 686 335.7C731.7 327.7 777.3 325.3 823 325.7C868.7 326 914.3 329 937.2 330.5L960 332L960 541L937.2 541C914.3 541 868.7 541 823 541C777.3 541 731.7 541 686 541C640.3 541 594.7 541 548.8 541C503 541 457 541 411.2 541C365.3 541 319.7 541 274 541C228.3 541 182.7 541 137 541C91.3 541 45.7 541 22.8 541L0 541Z" fill="#11191f"></path><path d="M0 358L22.8 363.8C45.7 369.7 91.3 381.3 137 391.7C182.7 402 228.3 411 274 405.2C319.7 399.3 365.3 378.7 411.2 369C457 359.3 503 360.7 548.8 370.7C594.7 380.7 640.3 399.3 686 402.7C731.7 406 777.3 394 823 389.3C868.7 384.7 914.3 387.3 937.2 388.7L960 390L960 541L937.2 541C914.3 541 868.7 541 823 541C777.3 541 731.7 541 686 541C640.3 541 594.7 541 548.8 541C503 541 457 541 411.2 541C365.3 541 319.7 541 274 541C228.3 541 182.7 541 137 541C91.3 541 45.7 541 22.8 541L0 541Z" fill="#1c2436"></path><path d="M0 440L22.8 434.2C45.7 428.3 91.3 416.7 137 409.5C182.7 402.3 228.3 399.7 274 398.3C319.7 397 365.3 397 411.2 397.3C457 397.7 503 398.3 548.8 402.2C594.7 406 640.3 413 686 415.3C731.7 417.7 777.3 415.3 823 416C868.7 416.7 914.3 420.3 937.2 422.2L960 424L960 541L937.2 541C914.3 541 868.7 541 823 541C777.3 541 731.7 541 686 541C640.3 541 594.7 541 548.8 541C503 541 457 541 411.2 541C365.3 541 319.7 541 274 541C228.3 541 182.7 541 137 541C91.3 541 45.7 541 22.8 541L0 541Z" fill="#352d4a"></path><path d="M0 433L22.8 436.3C45.7 439.7 91.3 446.3 137 452.7C182.7 459 228.3 465 274 463.3C319.7 461.7 365.3 452.3 411.2 449.2C457 446 503 449 548.8 453.5C594.7 458 640.3 464 686 466.7C731.7 469.3 777.3 468.7 823 467.8C868.7 467 914.3 466 937.2 465.5L960 465L960 541L937.2 541C914.3 541 868.7 541 823 541C777.3 541 731.7 541 686 541C640.3 541 594.7 541 548.8 541C503 541 457 541 411.2 541C365.3 541 319.7 541 274 541C228.3 541 182.7 541 137 541C91.3 541 45.7 541 22.8 541L0 541Z" fill="#583255"></path><path d="M0 498L22.8 499.2C45.7 500.3 91.3 502.7 137 499.7C182.7 496.7 228.3 488.3 274 488.8C319.7 489.3 365.3 498.7 411.2 500.2C457 501.7 503 495.3 548.8 491.8C594.7 488.3 640.3 487.7 686 491.3C731.7 495 777.3 503 823 504.7C868.7 506.3 914.3 501.7 937.2 499.3L960 497L960 541L937.2 541C914.3 541 868.7 541 823 541C777.3 541 731.7 541 686 541C640.3 541 594.7 541 548.8 541C503 541 457 541 411.2 541C365.3 541 319.7 541 274 541C228.3 541 182.7 541 137 541C91.3 541 45.7 541 22.8 541L0 541Z" fill="#7c3553"></path></svg>